<?xml version="1.0" standalone="no"?>
<!DOCTYPE svg PUBLIC "-//W3C//DTD SVG 20010904//EN"
 "http://www.w3.org/TR/2001/REC-SVG-20010904/DTD/svg10.dtd">
<svg version="1.0" xmlns="http://www.w3.org/2000/svg"
 width="1322.000000pt" height="1322.000000pt" viewBox="0 0 1322.000000 1322.000000"
 preserveAspectRatio="xMidYMid meet">
<metadata>
Created by potrace 1.14, written by Peter Selinger 2001-2017
</metadata>
<g transform="translate(0.000000,1322.000000) scale(0.100000,-0.100000)"
fill="#000000" stroke="none">
<path d="M1897 10373 c-5 -8 -18 -66 -19 -80 0 -5 -4 -18 -9 -31 -5 -12 -11
-33 -13 -45 -3 -12 -12 -51 -21 -87 -9 -36 -18 -72 -20 -80 -2 -8 -25 -98 -50
-200 -26 -102 -49 -193 -51 -202 -2 -10 -6 -26 -8 -35 -2 -10 -18 -72 -35
-138 -17 -66 -33 -129 -35 -140 -2 -11 -25 -103 -51 -205 -26 -102 -48 -192
-50 -200 -2 -8 -14 -53 -25 -100 -12 -47 -23 -92 -25 -100 -2 -8 -22 -88 -44
-177 -23 -88 -43 -169 -45 -180 -2 -10 -9 -38 -16 -63 -7 -25 -13 -49 -14 -55
-1 -5 -5 -19 -9 -30 -3 -11 -8 -31 -11 -45 -2 -14 -23 -99 -46 -190 -23 -91
-43 -172 -45 -180 -2 -8 -27 -107 -55 -219 -29 -113 -53 -212 -55 -220 -2 -9
-20 -81 -40 -161 -20 -80 -38 -152 -40 -160 -2 -8 -17 -69 -34 -135 -17 -66
-33 -129 -35 -140 -2 -11 -27 -112 -56 -225 -28 -113 -53 -212 -55 -220 -2 -8
-20 -80 -40 -160 -20 -80 -38 -152 -40 -160 -2 -8 -27 -107 -55 -220 -29 -113
-54 -212 -56 -220 -2 -8 -13 -53 -24 -100 -12 -47 -23 -93 -26 -102 -2 -10 -6
-27 -9 -38 -3 -11 -7 -29 -10 -41 -2 -11 -7 -29 -10 -39 -3 -10 -8 -27 -10
-37 -2 -10 -18 -74 -35 -143 -18 -69 -33 -129 -34 -135 -1 -5 -5 -19 -9 -30
-3 -11 -8 -31 -11 -45 -2 -14 -18 -81 -36 -150 -31 -120 -35 -139 -44 -178 -2
-9 -9 -37 -16 -62 -12 -43 -14 -54 -25 -101 -2 -11 -7 -29 -10 -39 -3 -10 -7
-27 -10 -37 -2 -10 -22 -92 -45 -183 -23 -91 -44 -173 -46 -182 -6 -27 -11
-46 -34 -143 -12 -49 -25 -97 -28 -105 -6 -15 -7 -22 -16 -70 -3 -14 -13 -52
-22 -85 -9 -33 -17 -67 -19 -75 -2 -8 -27 -107 -55 -220 -29 -113 -54 -213
-55 -223 -2 -9 -6 -20 -8 -25 -3 -4 -8 -23 -11 -42 -3 -19 -10 -51 -16 -70 -5
-19 -10 -36 -10 -38 0 -1 213 -1 473 0 l472 3 13 50 c7 28 15 61 18 75 3 14
18 75 34 136 16 61 31 122 34 135 3 13 15 60 26 104 12 44 23 91 26 105 3 14
9 39 14 55 5 17 11 41 14 55 5 23 8 37 22 92 3 13 7 30 9 38 2 8 4 15 5 15 1
0 3 7 5 15 1 8 8 35 15 60 7 25 14 56 15 70 2 14 4 25 5 25 1 0 4 8 14 50 2
11 14 55 25 98 12 42 22 85 24 95 1 9 6 23 10 30 5 6 6 12 3 12 -2 0 0 15 5
33 6 17 12 41 14 52 16 71 23 101 49 195 8 30 13 56 11 59 -3 2 0 10 6 18 6 7
8 13 5 13 -4 0 -2 8 3 19 6 10 13 31 16 47 6 33 10 53 25 109 6 22 13 51 16
65 3 14 7 33 10 42 3 9 7 25 9 35 2 10 16 63 30 118 14 55 28 111 31 125 3 14
12 52 21 85 8 33 17 68 19 78 6 27 11 46 34 132 11 44 22 89 25 100 2 11 4 20
5 20 1 0 3 9 4 20 2 11 17 72 34 136 17 64 33 127 36 140 3 13 21 87 41 164
20 77 36 148 37 158 1 9 7 17 13 18 5 0 962 1 2125 2 l2116 2 -38 -150 c-21
-82 -40 -159 -42 -170 -2 -11 -14 -58 -26 -105 -12 -47 -24 -92 -26 -100 -13
-52 -26 -107 -29 -120 -2 -8 -11 -44 -20 -80 -9 -36 -19 -72 -20 -80 -2 -8 -4
-15 -5 -15 -2 0 -2 -3 -15 -60 -9 -43 -13 -60 -15 -60 -1 0 -4 -11 -6 -24 -2
-14 -12 -52 -20 -85 -9 -34 -18 -69 -20 -78 -8 -34 -13 -55 -74 -298 -34 -135
-64 -253 -66 -263 -2 -10 -6 -27 -9 -37 -3 -10 -8 -28 -10 -39 -9 -41 -13 -57
-35 -141 -12 -47 -23 -92 -25 -100 -2 -8 -8 -35 -15 -60 -7 -25 -14 -52 -15
-60 -2 -8 -13 -53 -25 -100 -12 -47 -23 -92 -25 -100 -2 -8 -8 -35 -15 -60 -7
-25 -14 -52 -16 -60 -2 -8 -8 -35 -15 -60 -6 -25 -12 -52 -14 -60 -2 -8 -13
-53 -25 -100 -12 -47 -23 -92 -25 -100 -2 -8 -13 -53 -25 -100 -12 -47 -24
-93 -26 -103 -2 -10 -6 -27 -9 -37 -3 -10 -7 -27 -9 -37 -5 -22 -55 -221 -62
-246 -5 -16 144 -17 3063 -15 l3068 3 37 150 c21 83 39 158 41 167 2 10 6 20
9 24 4 3 4 12 2 19 -3 7 0 16 5 20 6 3 9 10 6 15 -3 5 -2 18 4 27 5 10 11 32
15 48 3 17 17 77 32 135 14 58 28 114 30 125 2 11 14 61 27 112 17 63 21 93
13 95 -6 2 -1173 3 -2593 3 -1421 -1 -2583 1 -2583 4 0 4 9 37 19 74 11 37 20
70 20 72 1 3 1 6 2 8 0 1 2 11 4 22 1 11 21 91 44 179 23 87 43 168 46 180 2
11 6 30 9 41 19 68 38 144 42 165 3 14 12 52 21 85 8 33 17 67 18 75 2 8 18
68 34 134 17 65 33 128 35 140 3 11 7 30 10 41 3 11 19 76 36 145 18 69 33
133 35 143 3 10 7 27 10 37 3 10 7 27 9 37 2 10 34 135 70 279 37 143 68 269
71 280 2 10 15 63 29 117 14 53 26 98 26 100 0 1 956 2 2125 1 1933 -1 2125 1
2126 15 1 19 2 23 29 121 11 41 23 86 25 100 2 14 18 79 35 145 18 66 34 129
36 140 7 37 13 59 39 160 15 55 29 111 32 125 9 46 11 55 13 58 2 1 4 7 5 12
1 6 4 12 5 15 1 3 3 15 3 28 l1 22 -2117 0 c-1405 0 -2117 3 -2117 10 0 6 5
30 11 55 6 25 12 52 14 60 2 8 13 51 24 95 12 44 24 91 27 105 3 14 17 70 31
125 14 55 27 107 28 115 2 8 4 15 5 15 1 0 3 8 5 17 2 9 11 47 20 84 9 37 18
75 20 83 2 9 79 315 170 681 195 776 170 676 180 725 4 22 10 45 14 50 3 6 7
19 8 31 2 11 9 40 16 65 l13 44 2592 0 2592 0 10 25 c5 14 11 36 13 50 2 14 6
32 10 40 6 16 18 64 24 94 2 11 11 47 19 80 9 34 17 68 19 76 9 40 68 277 72
290 7 18 9 26 16 65 3 17 13 57 23 90 9 33 18 68 20 78 2 10 6 27 9 38 6 19
-41 19 -3060 19 -2641 0 -3066 -2 -3071 -14 -3 -8 -7 -23 -9 -33 -2 -10 -4
-19 -5 -20 -3 -4 -4 -7 -14 -58 -4 -22 -7 -40 -6 -40 1 0 -3 -12 -9 -28 -6
-15 -13 -38 -15 -50 -3 -12 -39 -159 -81 -327 -42 -168 -79 -312 -80 -320 -2
-8 -22 -87 -44 -175 -23 -88 -43 -169 -46 -180 -2 -11 -18 -76 -35 -145 -30
-120 -35 -138 -44 -177 -2 -10 -19 -74 -36 -143 -18 -69 -34 -133 -36 -143 -2
-10 -6 -27 -9 -37 -3 -10 -8 -29 -11 -42 -8 -38 -12 -53 -14 -55 -3 -4 -4 -7
-14 -58 -4 -22 -8 -41 -7 -42 0 -2 -6 -21 -14 -43 -8 -22 -14 -42 -15 -45 0
-3 0 -6 -1 -7 0 -2 -2 -13 -5 -25 -2 -11 -15 -65 -29 -119 -14 -53 -23 -99
-20 -102 3 -3 1 -10 -4 -16 -7 -9 -43 -140 -56 -206 -2 -8 -8 -35 -15 -60 -7
-25 -14 -52 -16 -60 -2 -8 -8 -35 -15 -60 -6 -25 -12 -52 -14 -60 -2 -8 -22
-89 -45 -180 -54 -213 -51 -203 -52 -217 -1 -7 -6 -13 -12 -14 -6 0 -962 -1
-2124 -2 -1871 -2 -2112 0 -2112 13 0 8 11 57 25 107 13 51 27 105 30 120 10
46 10 48 18 61 5 6 6 12 3 12 -2 0 9 51 26 113 16 61 31 121 33 132 1 11 9 40
16 65 18 66 20 73 21 90 0 8 5 21 11 28 5 6 7 12 4 12 -3 0 3 29 13 65 10 36
17 65 15 65 -3 0 0 11 5 25 5 14 12 36 14 48 3 12 19 76 36 142 17 66 34 131
36 145 3 14 19 78 35 143 17 65 32 126 34 135 2 9 4 17 5 17 1 0 3 10 5 21 3
12 16 66 30 120 14 55 28 110 31 124 3 14 11 46 19 73 8 26 12 47 9 47 -3 0 0
8 5 18 5 9 11 31 14 47 3 17 22 95 42 175 37 147 42 165 49 198 2 10 11 41 19
69 9 28 13 54 10 57 -4 3 -2 6 3 6 5 0 10 10 11 23 2 23 10 62 13 62 1 0 3 9
5 20 3 18 7 35 20 83 18 67 26 100 31 122 3 14 7 33 10 42 3 9 7 25 9 35 2 10
16 63 30 118 14 55 28 111 31 125 5 27 32 134 40 163 5 16 -22 17 -465 17
-258 0 -472 -3 -474 -7z"/>
</g>
</svg>
