<?xml version="1.0" standalone="no"?>
<!DOCTYPE svg PUBLIC "-//W3C//DTD SVG 20010904//EN"
 "http://www.w3.org/TR/2001/REC-SVG-20010904/DTD/svg10.dtd">
<svg version="1.0" xmlns="http://www.w3.org/2000/svg"
 width="1372.000000pt" height="1372.000000pt" viewBox="0 0 1372.000000 1372.000000"
 preserveAspectRatio="xMidYMid meet">
<metadata>
Created by potrace 1.14, written by Peter Selinger 2001-2017
</metadata>
<g transform="translate(0.000000,1372.000000) scale(0.100000,-0.100000)"
fill="#000000" stroke="none">
<path d="M2175 10640 l-180 -180 440 0 440 0 180 180 180 180 -440 0 -440 0
-180 -180z"/>
<path d="M7373 10648 c-95 -95 -173 -176 -173 -180 0 -4 1365 -8 3033 -8
l3032 0 180 180 180 180 -3039 0 -3040 0 -173 -172z"/>
<path d="M13461 10596 l-164 -164 -107 -429 c-59 -235 -107 -429 -106 -430 1
-1 77 73 168 165 l167 167 106 424 c58 233 104 425 102 427 -1 2 -76 -70 -166
-160z"/>
<path d="M3072 10587 l-164 -164 -399 -1598 c-220 -879 -398 -1599 -396 -1601
2 -2 76 70 166 160 l164 164 398 1593 c219 877 397 1597 396 1602 -1 4 -76
-66 -165 -156z"/>
<path d="M1026 6675 c-515 -2060 -936 -3752 -936 -3760 0 -13 54 -15 447 -13
l446 3 402 1610 c222 886 408 1629 414 1653 l12 42 2138 0 c1702 0 2140 -3
2144 -12 2 -7 -180 -749 -404 -1648 -225 -899 -409 -1638 -409 -1642 0 -5
1370 -8 3044 -8 l3044 0 111 445 c61 245 111 447 111 450 0 3 -1163 5 -2585 5
-2309 0 -2586 2 -2591 15 -6 15 570 2342 588 2377 8 17 122 18 2129 20 l2121
3 112 448 112 447 -2117 0 c-1165 0 -2120 4 -2123 8 -5 9 579 2359 592 2382 8
13 311 16 2602 20 l2594 5 108 430 c59 237 108 438 108 448 0 16 -149 17
-3042 15 l-3043 -3 -411 -1641 c-226 -902 -414 -1646 -418 -1652 -10 -16
-4271 -17 -4281 -2 -5 7 773 3153 811 3283 5 16 -21 17 -444 17 l-450 0 -936
-3745z"/>
<path d="M7583 8348 c-154 -618 -279 -1125 -276 -1128 2 -2 76 69 165 157
l162 162 241 965 242 966 -127 0 -127 0 -280 -1122z"/>
<path d="M2295 7330 l-180 -180 2089 2 2090 3 43 170 c23 94 43 173 43 178 0
4 -879 7 -1953 7 l-1952 0 -180 -180z"/>
<path d="M7492 7337 c-94 -95 -172 -176 -172 -180 0 -4 939 -7 2087 -7 l2087
0 180 180 181 180 -2095 0 -2095 0 -173 -173z"/>
<path d="M11688 7282 l-165 -167 -102 -407 c-55 -224 -101 -414 -101 -421 0
-7 74 61 164 152 l165 166 105 420 c58 231 104 421 102 422 -1 1 -76 -73 -168
-165z"/>
<path d="M1446 4569 c-219 -875 -396 -1592 -394 -1594 2 -3 77 69 166 158
l162 163 358 1432 358 1432 -126 0 -127 0 -397 -1591z"/>
<path d="M6754 5035 c-154 -619 -277 -1125 -274 -1125 3 0 78 73 167 163 l162
162 236 945 c130 520 238 953 241 963 5 16 -5 17 -123 17 l-128 0 -281 -1125z"/>
<path d="M6660 4025 l-175 -175 2565 0 2565 0 175 175 175 175 -2565 0 -2565
0 -175 -175z"/>
<path d="M11805 3980 l-159 -160 -108 -427 c-59 -235 -106 -429 -104 -430 1
-1 77 73 168 165 l165 167 106 423 c57 232 102 422 98 422 -3 0 -78 -72 -166
-160z"/>
</g>
</svg>
